<svg width="32" height="30" viewBox="0 0 32 30" fill="none" xmlns="http://www.w3.org/2000/svg">
<path d="M14.8777 0.927051C15.1771 0.00574017 16.4805 0.0057404 16.7798 0.927051L19.7696 10.1286C19.9034 10.5406 20.2874 10.8196 20.7206 10.8196H30.3957C31.3644 10.8196 31.7672 12.0592 30.9835 12.6286L23.1562 18.3154C22.8057 18.5701 22.659 19.0214 22.7929 19.4335L25.7827 28.635C26.082 29.5563 25.0275 30.3224 24.2438 29.753L16.4165 24.0662C16.0661 23.8115 15.5915 23.8115 15.241 24.0662L7.41369 29.753C6.62998 30.3224 5.5755 29.5563 5.87485 28.635L8.8646 19.4335C8.99848 19.0214 8.85182 18.5701 8.50133 18.3154L0.674051 12.6286C-0.109663 12.0592 0.293113 10.8196 1.26184 10.8196H10.9369C11.3701 10.8196 11.7541 10.5406 11.8879 10.1286L14.8777 0.927051Z" fill="#DD3432"/>
</svg>
