<svg width="33" height="30" viewBox="0 0 33 30" fill="none" xmlns="http://www.w3.org/2000/svg">
<path d="M15.562 0.927051C15.8614 0.00574017 17.1648 0.0057404 17.4641 0.927051L20.4539 10.1286C20.5878 10.5406 20.9717 10.8196 21.405 10.8196H31.08C32.0487 10.8196 32.4515 12.0592 31.6678 12.6286L23.8405 18.3154C23.49 18.5701 23.3434 19.0214 23.4772 19.4335L26.467 28.635C26.7663 29.5563 25.7119 30.3224 24.9282 29.753L17.1009 24.0662C16.7504 23.8115 16.2758 23.8115 15.9253 24.0662L8.09801 29.753C7.3143 30.3224 6.25982 29.5563 6.55917 28.635L9.54893 19.4335C9.6828 19.0214 9.53615 18.5701 9.18566 18.3154L1.35838 12.6286C0.574663 12.0592 0.977439 10.8196 1.94616 10.8196H11.6212C12.0544 10.8196 12.4384 10.5406 12.5723 10.1286L15.562 0.927051Z" fill="#045EBE"/>
</svg>
